<svg width="47" height="58" viewBox="0 0 47 58" fill="none" xmlns="http://www.w3.org/2000/svg">
<path d="M11.5396 54.3959C11.6722 55.2169 12.0858 55.9663 12.7098 56.516C13.3337 57.0658 14.1292 57.3818 14.9603 57.4099H32.0398C32.8916 57.4096 33.7156 57.1061 34.3642 56.5539C35.0128 56.0017 35.4438 55.2368 35.5801 54.3959L39.7423 27.3893C39.7775 27.1039 39.9164 26.8414 40.1325 26.6518C40.3486 26.4621 40.6269 26.3585 40.9144 26.3607H43.8089C44.4433 26.3607 45.0517 26.1087 45.5003 25.6601C45.9489 25.2115 46.2009 24.603 46.2009 23.9686C46.2009 23.3342 45.9489 22.7258 45.5003 22.2772C45.0517 21.8286 44.4433 21.5765 43.8089 21.5765H41.034C40.7578 21.5746 40.491 21.4751 40.281 21.2957C40.0709 21.1162 39.9309 20.8684 39.8858 20.5958C39.0915 16.6645 36.8988 13.1546 33.7143 10.7165C33.2103 10.3748 32.595 10.2381 31.9937 10.3343C31.3925 10.4306 30.8506 10.7524 30.4785 11.2344C30.1063 11.7163 29.932 12.322 29.991 12.9281C30.05 13.5341 30.3378 14.0948 30.7959 14.496C32.6292 15.8919 34.0104 17.7973 34.7668 19.9738C34.8335 20.1512 34.8554 20.3423 34.8303 20.5301C34.8053 20.7179 34.7341 20.8966 34.6233 21.0503C34.5162 21.2124 34.3705 21.3454 34.1993 21.4372C34.0281 21.5291 33.8368 21.577 33.6425 21.5765H28.1168C27.9368 21.5775 27.7591 21.537 27.5973 21.4582C27.4355 21.3793 27.2941 21.2643 27.1839 21.122C27.0703 20.9885 26.9895 20.8303 26.948 20.66C26.9065 20.4897 26.9053 20.3121 26.9447 20.1413L29.6716 6.31504C29.7111 6.13504 29.7908 5.96631 29.9049 5.82154C30.0189 5.67676 30.1642 5.55969 30.3299 5.47913C30.4957 5.39856 30.6775 5.35659 30.8618 5.35636C31.0461 5.35613 31.228 5.39766 31.3939 5.47781L39.1682 9.35299C39.4508 9.5314 39.7676 9.64863 40.0982 9.69711C40.4289 9.7456 40.766 9.72426 41.0879 9.63449C41.4098 9.54471 41.7093 9.38849 41.9671 9.17589C42.225 8.96328 42.4354 8.69901 42.5848 8.40011C42.7343 8.10121 42.8195 7.77431 42.8348 7.44049C42.8502 7.10666 42.7955 6.77332 42.6742 6.46194C42.5529 6.15056 42.3677 5.86805 42.1305 5.63263C41.8933 5.3972 41.6094 5.21409 41.2972 5.09508L32.1116 0.502278C31.4563 0.181205 30.7362 0.0142822 30.0065 0.0142822C29.2768 0.0142822 28.5568 0.181205 27.9015 0.502278C27.2385 0.822263 26.6584 1.29092 26.2061 1.87178C25.7539 2.45263 25.4418 3.13001 25.2941 3.85119L21.9691 20.5958C21.9234 20.8724 21.78 21.1235 21.5649 21.3035C21.3498 21.4834 21.0774 21.5803 20.797 21.5765H13.3576C13.1637 21.5749 12.9732 21.5261 12.8023 21.4344C12.6315 21.3428 12.4855 21.2109 12.3769 21.0503C12.2715 20.8941 12.2036 20.7157 12.1787 20.5289C12.1538 20.3421 12.1725 20.1522 12.2334 19.9738C12.8872 18.1292 13.9838 16.4732 15.4268 15.1511C16.8699 13.829 18.6153 12.8813 20.51 12.3909C21.1253 12.2323 21.6525 11.8358 21.9755 11.2885C22.2985 10.7412 22.3909 10.088 22.2323 9.47259C22.0737 8.8572 21.6771 8.33003 21.1298 8.00703C20.5825 7.68404 19.9293 7.59169 19.3139 7.75029C16.284 8.5422 13.5369 10.1679 11.3846 12.4428C9.23237 14.7177 7.7612 17.5506 7.13822 20.6197C7.08307 20.8899 6.93628 21.1327 6.72269 21.307C6.50909 21.4814 6.24182 21.5766 5.96609 21.5765H3.19128C2.55686 21.5765 1.94842 21.8286 1.49982 22.2772C1.05122 22.7258 0.799194 23.3342 0.799194 23.9686C0.799194 24.603 1.05122 25.2115 1.49982 25.6601C1.94842 26.1087 2.55686 26.3607 3.19128 26.3607H6.0857C6.37322 26.3585 6.65152 26.4621 6.86763 26.6518C7.08375 26.8414 7.22262 27.1039 7.25782 27.3893L11.5396 54.3959ZM33.6664 26.3129C33.8393 26.3188 34.0091 26.3601 34.1654 26.4341C34.3218 26.5082 34.4613 26.6134 34.5754 26.7434C34.6852 26.8748 34.7655 27.0282 34.8109 27.1933C34.8563 27.3583 34.8657 27.5312 34.8385 27.7003L34.097 32.4844C34.0564 32.7655 33.9153 33.0222 33.6997 33.207C33.4841 33.3918 33.2088 33.492 32.9249 33.4891H25.8921C25.7182 33.4893 25.5463 33.4508 25.3891 33.3763C25.2319 33.3018 25.0932 33.1933 24.9832 33.0585C24.8728 32.9228 24.7923 32.7652 24.747 32.5962C24.7016 32.4272 24.6924 32.2506 24.72 32.0778L25.6529 27.2936C25.6987 27.017 25.8421 26.7659 26.0572 26.5859C26.2722 26.406 26.5447 26.3091 26.8251 26.3129H33.6664ZM19.6727 32.5323C19.627 32.8089 19.4836 33.06 19.2685 33.24C19.0534 33.4199 18.781 33.5168 18.5006 33.513H14.0753C13.7913 33.5159 13.516 33.4157 13.3004 33.2309C13.0849 33.0461 12.9437 32.7894 12.9031 32.5084L12.1616 27.7242C12.1344 27.5552 12.1438 27.3823 12.1892 27.2172C12.2346 27.0521 12.3149 26.8987 12.4247 26.7674C12.5367 26.633 12.6752 26.5233 12.8317 26.445C12.9881 26.3668 13.159 26.3218 13.3337 26.3129H19.4335C19.6072 26.3143 19.7785 26.3536 19.9355 26.4279C20.0925 26.5023 20.2314 26.61 20.3425 26.7434C20.4548 26.8828 20.5363 27.0444 20.5817 27.2176C20.627 27.3908 20.6352 27.5716 20.6056 27.7481L19.6727 32.5323Z" fill="black"/>
</svg>
