<svg width="59" height="52" viewBox="0 0 59 52" fill="none" xmlns="http://www.w3.org/2000/svg">
<path d="M56.0279 9.17339C53.9714 6.46415 50.7017 4.30538 46.6917 2.77979C42.6797 1.26138 37.9067 0.389282 32.7697 0.389282C24.7778 0.396457 17.6419 2.48147 12.9123 5.91089C12.2872 6.36908 11.226 6.92145 10.0281 7.49511C8.21138 8.36003 6.0748 9.29682 4.28732 10.4379C3.39392 11.0125 2.58057 11.6447 1.93325 12.4146C1.61441 12.8061 1.33033 13.235 1.12696 13.7145C0.923593 14.1942 0.800049 14.7323 0.800049 15.2846C0.800049 16.0252 1.01765 16.7232 1.35241 17.3189C1.94827 18.358 2.84952 19.1349 3.85223 19.8329C5.36357 20.8717 7.17235 21.7295 8.8578 22.5208C9.69346 22.9133 10.4998 23.2908 11.2048 23.6539C11.9028 24.0099 12.5057 24.3598 12.9125 24.6573C13.1158 24.8101 13.3263 24.9548 13.5446 25.0933L16.8862 41.2238C17.8888 46.0989 23.7602 51.0104 32.6535 51.0104C41.5396 51.0104 47.4111 46.0989 48.4206 41.2238L51.7196 25.2744C53.4556 24.1556 54.9155 22.8556 56.028 21.3948C57.3938 19.586 58.2072 17.4929 58.2001 15.2845C58.2071 13.0752 57.3938 10.9832 56.0279 9.17339ZM53.7023 19.6437C53.3898 20.0584 53.0337 20.4652 52.627 20.8568C50.978 22.4915 48.5875 23.9673 45.6669 25.0712C42.0191 26.452 37.5728 27.2726 32.7697 27.2726C25.2928 27.2796 18.6594 25.2603 14.6191 22.3034C14.0606 21.9037 13.4283 21.5326 12.7373 21.1774C12.273 20.9376 11.7863 20.6978 11.2776 20.4509C9.41722 19.5639 7.35351 18.6483 5.85719 17.6822C5.1157 17.2097 4.51984 16.7151 4.16378 16.2871C3.98978 16.0757 3.87342 15.8875 3.80054 15.7197C3.73574 15.5607 3.70637 15.423 3.70637 15.2846C3.70637 15.1025 3.74987 14.9213 3.88844 14.6736C4.12118 14.2456 4.68666 13.6782 5.50102 13.1267C6.71404 12.2831 8.42169 11.4626 10.0928 10.6776C10.9285 10.2851 11.7569 9.89257 12.5268 9.50086C13.2977 9.10837 14.0018 8.70881 14.619 8.26575C18.6593 5.30786 25.2927 3.28854 32.7696 3.29561C39.1703 3.28854 44.9538 4.76256 49.0163 7.04477C51.0507 8.18582 52.6491 9.52227 53.7022 10.9244C54.7633 12.3417 55.2935 13.7872 55.2935 15.2845C55.2936 16.7809 54.7635 18.2266 53.7023 19.6437Z" fill="black"/>
</svg>
