<svg width="53" height="53" viewBox="0 0 53 53" fill="none" xmlns="http://www.w3.org/2000/svg">
<path d="M53 26.4992L46.4469 21.1546L49.4491 13.2499L41.1023 11.8969L39.7493 3.55017L31.8447 6.55233L26.5 0L21.1538 6.55233L13.2508 3.55017L11.8979 11.8971L3.5511 13.25L6.55181 21.1547L0 26.4992L6.55171 31.8439L3.551 39.7492L11.8978 41.1021L13.2507 49.4489L21.1538 46.4467L26.5 52.9992L31.8447 46.4467L39.7493 49.4489L41.1022 41.1021L49.449 39.7492L46.4468 31.8439L53 26.4992ZM22.0311 32.4671L20.5424 32.7604C20.4416 32.7794 20.3717 32.7546 20.3045 32.6765L16.2398 27.928L16.1771 27.9404L17.2279 33.2814C17.2426 33.3566 17.2017 33.4164 17.1273 33.4317L15.7131 33.7098C15.6386 33.7244 15.5788 33.6835 15.5642 33.6083L13.9413 25.3534C13.9252 25.2774 13.9661 25.2184 14.0405 25.2038L15.5424 24.9082C15.6299 24.8907 15.7116 24.914 15.7788 24.9922L19.8346 29.7553L19.8959 29.7428L18.8436 24.3894C18.8291 24.3135 18.8699 24.2544 18.9443 24.2391L20.3585 23.9611C20.4329 23.9465 20.4928 23.9859 20.5074 24.0618L22.1303 32.3166C22.1463 32.3926 22.1056 32.4525 22.0311 32.4671ZM29.3636 31.0251L23.9094 32.0979C23.8335 32.1124 23.7753 32.0723 23.7591 31.9972L22.1362 23.7423C22.1216 23.6664 22.161 23.6065 22.2369 23.592L27.6909 22.5192C27.7654 22.5047 27.8253 22.5448 27.8398 22.6206L28.1025 23.9583C28.1186 24.0334 28.0777 24.0934 28.0033 24.1079L24.3369 24.8289C24.2874 24.8385 24.267 24.8683 24.2771 24.9187L24.6085 26.6072C24.6187 26.6569 24.6493 26.6773 24.6989 26.6679L27.7521 26.0673C27.8266 26.0527 27.8864 26.0935 27.901 26.1679L28.1623 27.494C28.1769 27.5691 28.136 27.6282 28.0616 27.6428L25.0083 28.2434C24.9588 28.2537 24.9384 28.2836 24.9486 28.3332L25.2959 30.097C25.3046 30.1473 25.3352 30.1669 25.3849 30.1568L29.0511 29.4358C29.1256 29.4212 29.1855 29.4621 29.2 29.5373L29.4627 30.8757C29.4789 30.9507 29.438 31.0105 29.3636 31.0251ZM38.497 29.0986C38.4985 29.1766 38.446 29.2394 38.3584 29.2562L37.1077 29.5022C37.0201 29.5197 36.9603 29.4788 36.9208 29.4088L34.4047 24.4086L34.3798 24.4136L33.9318 29.997C33.9216 30.0765 33.8807 30.1371 33.7931 30.1538L32.5423 30.4005C32.4679 30.4151 32.4081 30.3742 32.3672 30.3041L28.5433 22.4819C28.5156 22.409 28.5301 22.3542 28.6177 22.3367L30.2319 22.0201C30.3195 22.0025 30.3792 22.042 30.4056 22.1156L32.6825 27.2151L32.7073 27.21L33.1086 21.5844C33.1189 21.5034 33.1597 21.4443 33.2459 21.4267L34.3347 21.2128C34.4091 21.1982 34.4689 21.2377 34.5098 21.3092L37.0595 26.3539L37.0858 26.3488L37.2113 20.778C37.2069 20.6875 37.2493 20.6393 37.3368 20.6225L38.9379 20.308C39.0255 20.2904 39.059 20.335 39.0619 20.4131L38.497 29.0986Z" fill="#962323"/>
</svg>
