<svg width="51" height="58" viewBox="0 0 51 58" fill="none" xmlns="http://www.w3.org/2000/svg">
<path fill-rule="evenodd" clip-rule="evenodd" d="M8.73101 1.722C8.90554 1.21935 9.2322 0.783493 9.66568 0.474919C10.0991 0.166346 10.6179 0.00036065 11.15 0L39.85 0C40.9406 0 41.9123 0.6888 42.269 1.722L46.0697 12.6444C47.3918 13.0913 48.5408 13.941 49.3555 15.0741C50.1703 16.2072 50.6098 17.5669 50.6125 18.9625V24.0875C50.6125 26.9452 48.8167 29.3806 46.287 30.3277L42.3797 55.2352C42.285 55.8382 41.9781 56.3876 41.5144 56.7844C41.0506 57.1813 40.4604 57.3996 39.85 57.4H11.15C10.5396 57.3996 9.94943 57.1813 9.48567 56.7844C9.02191 56.3876 8.71504 55.8382 8.62031 55.2352L4.71301 30.3277C3.44401 29.8493 2.3506 28.9961 1.578 27.8815C0.8054 26.767 0.390187 25.4437 0.387512 24.0875V18.9625C0.387512 16.0228 2.28991 13.53 4.93031 12.6444L8.73101 1.722ZM9.96101 30.75L13.3394 52.275H37.6524L41.0308 30.75H9.96101ZM38.0255 5.125L40.5224 12.3H10.4776L12.9704 5.125H38.0255Z" fill="black"/>
</svg>
