<svg width="44" height="49" viewBox="0 0 44 49" fill="none" xmlns="http://www.w3.org/2000/svg">
<path d="M5.75537 48.6257C2.59781 48.6257 1.33001 42.9804 1.06688 40.7319C0.783605 38.5488 1.04662 36.3296 1.83235 34.2732C2.17768 33.2947 2.77168 32.4229 3.55596 31.7435C4.34024 31.0641 5.28781 30.6004 6.30554 30.3981C9.10428 29.9197 11.0897 31.5941 13.6253 32.1682C14.1016 32.3211 14.6094 32.3479 15.0992 32.2461C15.5889 32.1442 16.0439 31.9172 16.4198 31.5871C16.7957 31.257 17.0796 30.8351 17.2438 30.3626C17.4081 29.8901 17.447 29.3831 17.357 28.8911C16.3045 24.7767 8.81723 24.7049 5.75537 24.7049C5.75537 20.2556 10.6352 19.6815 14.1277 20.0164C16.1995 20.2166 18.2396 20.6663 20.2035 21.356C21.3996 21.7627 22.787 22.7912 24.1026 22.6956C26.0881 22.5281 26.4947 20.4709 25.6336 18.9639C23.5525 15.4236 17.644 15.1366 14.1277 15.1366C14.1277 10.3524 18.266 9.44342 22.2368 10.161C24.2871 10.5647 26.2852 11.1986 28.1931 12.0508C29.4131 12.5771 30.8722 13.5817 32.2118 13.1272C35.6564 12.0747 32.0683 8.39091 30.5373 7.50584C29.4629 6.91292 28.3229 6.44731 27.1406 6.11843C25.8489 5.73569 24.2701 5.87922 25.4422 4.37221C27.275 2.75519 29.549 1.72234 31.9726 1.40602C36.4936 0.353507 42.737 0.162139 43.8373 5.8553C44.204 8.86107 43.4828 11.8988 41.8041 14.419C37.3466 22.0409 31.8296 28.9915 25.4183 35.0626C22.0219 38.5442 18.3413 41.7367 14.4147 44.607C12.0226 46.3293 8.86507 48.6257 5.75537 48.6257Z" fill="black"/>
</svg>
