<svg width="53" height="54" viewBox="0 0 53 54" fill="none" xmlns="http://www.w3.org/2000/svg">
<path fill-rule="evenodd" clip-rule="evenodd" d="M6.71411 48.6684C15.8218 56.3245 31.5152 53.8763 42.5954 42.8003C52.6216 32.7741 55.5741 18.9711 50.3744 9.68704C50.1748 10.3978 49.9425 11.1537 49.6773 11.9547C48.3323 15.998 46.0112 21.1895 42.1443 25.0606C39.9299 27.275 37.2234 28.3002 34.521 28.7923C31.9171 29.2679 29.1286 29.2679 26.6149 29.2679H26.5001C23.8551 29.2679 21.5013 29.2761 19.3935 29.6575C17.3391 30.0307 15.7234 30.7319 14.4809 31.9744C11.434 35.0212 9.42878 39.3393 8.18216 43.0751C7.57368 44.9062 7.08332 46.7745 6.71411 48.6684ZM2.62569 43.723C-2.57401 34.4389 0.378503 20.6359 10.4047 10.6097C21.4849 -0.470433 37.1783 -2.91036 46.286 4.74157L46.0933 5.68474C45.839 6.85754 45.4289 8.49373 44.8138 10.3349C43.5713 14.0666 41.5661 18.3888 38.5192 21.4356C37.2767 22.6781 35.661 23.3793 33.6066 23.7525C31.4988 24.1339 29.145 24.1421 26.5001 24.1421H26.3852C23.8715 24.1421 21.083 24.1421 18.4791 24.6136C15.7767 25.1057 13.0702 26.135 10.8558 28.3494C6.98885 32.2205 4.66785 37.412 3.32282 41.4553C3.05764 42.2535 2.82526 43.0094 2.62569 43.723Z" fill="black"/>
</svg>
