<svg width="24" height="24" viewBox="0 0 24 24" fill="none" xmlns="http://www.w3.org/2000/svg">
<path d="M6.17501 10.3331C4.96701 10.7411 4.22001 11.3031 4.22001 11.9261C4.22001 12.7741 5.60901 13.5131 7.66001 13.8961C6.89801 14.2821 6.44301 14.7711 6.44301 15.3041C6.44301 16.5471 8.93001 17.5551 11.998 17.5551C12.743 17.5566 13.4867 17.494 14.221 17.3681M7.66101 13.8971C8.72575 14.0872 9.80545 14.1809 10.887 14.1771C12.595 14.1771 14.152 13.9611 15.332 13.6041M16.442 10.1241C15.031 10.5411 13.063 10.8001 10.887 10.8001C6.59201 10.8001 3.10901 9.79209 3.10901 8.54809C3.10901 7.58809 5.18601 6.76809 8.10901 6.44409" stroke="white" stroke-width="1.5" stroke-linecap="round" stroke-linejoin="round"/>
<path d="M22 19.07C22 20.688 17.523 22 12 22C6.477 22 2 20.688 2 19.07C2 17.92 3.707 16.924 7 16.444M18.76 8.788C22.974 7.694 23.576 14.256 17.555 16.444M17.558 2C16.818 2.123 15.425 2.815 15.78 4.593C16.136 6.37 15.632 7.309 15.336 7.556M13.113 2C12.372 2.148 10.979 2.978 11.335 5.111C11.691 7.244 11.187 7.815 10.891 8.111" stroke="white" stroke-width="1.5" stroke-linecap="round" stroke-linejoin="round"/>
</svg>
