<svg width="48" height="44" viewBox="0 0 48 44" fill="none" xmlns="http://www.w3.org/2000/svg">
<path d="M12.35 18.666C9.93402 19.482 8.44002 20.606 8.44002 21.852C8.44002 23.548 11.218 25.026 15.32 25.792C13.796 26.564 12.886 27.542 12.886 28.608C12.886 31.094 17.86 33.11 23.996 33.11C25.486 33.113 26.9735 32.9878 28.442 32.736M15.322 25.794C17.4515 26.1741 19.6109 26.3616 21.774 26.354C25.19 26.354 28.304 25.922 30.664 25.208M32.884 18.248C30.062 19.082 26.126 19.6 21.774 19.6C13.184 19.6 6.21802 17.584 6.21802 15.096C6.21802 13.176 10.372 11.536 16.218 10.888" stroke="#A08963" stroke-width="3" stroke-linecap="round" stroke-linejoin="round"/>
<path d="M44 36.14C44 39.376 35.046 42 24 42C12.954 42 4 39.376 4 36.14C4 33.84 7.414 31.848 14 30.888M37.52 15.576C45.948 13.388 47.152 26.512 35.11 30.888M35.116 2C33.636 2.246 30.85 3.63 31.56 7.186C32.272 10.74 31.264 12.618 30.672 13.112M26.226 2C24.744 2.296 21.958 3.956 22.67 8.222C23.382 12.488 22.374 13.63 21.782 14.222" stroke="#A08963" stroke-width="3" stroke-linecap="round" stroke-linejoin="round"/>
</svg>
