<svg width="24" height="18" viewBox="0 0 24 18" fill="none" xmlns="http://www.w3.org/2000/svg">
<path d="M19 0C19.5304 0 20.0391 0.210714 20.4142 0.585786C20.7893 0.960859 21 1.46957 21 2V16C21 16.5304 20.7893 17.0391 20.4142 17.4142C20.0391 17.7893 19.5304 18 19 18H5C4.46957 18 3.96086 17.7893 3.58579 17.4142C3.21071 17.0391 3 16.5304 3 16V2C3 1.46957 3.21071 0.960859 3.58579 0.585786C3.96086 0.210714 4.46957 0 5 0H19ZM18.5 15.5V10.2C18.5 9.33539 18.1565 8.5062 17.5452 7.89483C16.9338 7.28346 16.1046 6.94 15.24 6.94C14.39 6.94 13.4 7.46 12.92 8.24V7.13H10.13V15.5H12.92V10.57C12.92 9.8 13.54 9.17 14.31 9.17C14.6813 9.17 15.0374 9.3175 15.2999 9.58005C15.5625 9.8426 15.71 10.1987 15.71 10.57V15.5H18.5ZM6.88 5.56C7.32556 5.56 7.75288 5.383 8.06794 5.06794C8.383 4.75288 8.56 4.32556 8.56 3.88C8.56 2.95 7.81 2.19 6.88 2.19C6.43178 2.19 6.00193 2.36805 5.68499 2.68499C5.36805 3.00193 5.19 3.43178 5.19 3.88C5.19 4.81 5.95 5.56 6.88 5.56ZM8.27 15.5V7.13H5.5V15.5H8.27Z" fill="#A08963"/>
</svg>
