<svg width="24" height="22" viewBox="0 0 24 22" fill="none" xmlns="http://www.w3.org/2000/svg">
<g clip-path="url(#clip0_2_67)">
<path d="M12 0.0930023C17.523 0.0930023 22 4.57 22 10.093C22 15.616 17.523 20.093 12 20.093C10.298 20.0954 8.62372 19.6616 7.13701 18.833L6.83201 18.655L3.80001 19.547C3.63501 19.5956 3.46033 19.6013 3.29252 19.5635C3.12472 19.5257 2.96935 19.4456 2.84115 19.331C2.71294 19.2163 2.61615 19.0708 2.55995 18.9082C2.50375 18.7456 2.49 18.5714 2.52001 18.402L2.54601 18.293L3.43801 15.261C2.49506 13.7023 1.99769 11.9148 2.00001 10.093C2.00001 4.57 6.47701 0.0930023 12 0.0930023ZM12 2.093C10.5676 2.09274 9.16146 2.47706 7.92834 3.20582C6.69521 3.93458 5.68036 4.98104 4.98977 6.23594C4.29918 7.49084 3.95817 8.90814 4.00237 10.3398C4.04656 11.7715 4.47433 13.1651 5.24101 14.375C5.43901 14.687 5.52401 15.071 5.45701 15.452L5.41801 15.615L4.97701 17.116L6.47801 16.675C6.91101 16.547 7.36101 16.625 7.71801 16.852C8.76634 17.5158 9.9547 17.9266 11.1892 18.052C12.4236 18.1774 13.6703 18.014 14.8307 17.5746C15.9911 17.1352 17.0334 16.4319 17.8752 15.5203C18.717 14.6087 19.3352 13.5138 19.6809 12.3221C20.0266 11.1304 20.0904 9.87468 19.8673 8.65411C19.6441 7.43353 19.14 6.2816 18.395 5.28938C17.65 4.29715 16.6843 3.49184 15.5744 2.93708C14.4645 2.38233 13.2408 2.09336 12 2.093ZM9.10201 5.277C9.21283 5.22955 9.33402 5.21152 9.45386 5.22466C9.57369 5.23779 9.68811 5.28166 9.78601 5.352C10.29 5.72 10.69 6.214 11.034 6.696L11.361 7.17L11.514 7.395C11.6026 7.52396 11.6461 7.67858 11.6378 7.83482C11.6295 7.99106 11.5698 8.14018 11.468 8.259L11.393 8.335L10.469 9.021C10.425 9.0536 10.3941 9.10081 10.3819 9.15415C10.3696 9.20749 10.3767 9.26346 10.402 9.312C10.612 9.692 10.983 10.259 11.409 10.685C11.836 11.111 12.429 11.507 12.835 11.74C12.923 11.79 13.029 11.774 13.101 11.709L13.139 11.664L13.74 10.749C13.8502 10.6018 14.0131 10.5031 14.1946 10.4736C14.3761 10.4442 14.5619 10.4862 14.713 10.591L15.256 10.97C15.796 11.355 16.315 11.769 16.726 12.294C16.8021 12.3927 16.8504 12.5098 16.866 12.6334C16.8817 12.757 16.8641 12.8825 16.815 12.997C16.419 13.921 15.416 14.708 14.374 14.67L14.215 14.66L14.024 14.642L13.916 14.628L13.678 14.588C12.754 14.414 11.273 13.89 9.73801 12.356C8.20401 10.821 7.68001 9.34 7.50601 8.416L7.46601 8.178L7.44101 7.97L7.42801 7.795L7.42401 7.72C7.38601 6.676 8.17701 5.673 9.10201 5.277Z" fill="#A08963"/>
</g>
<defs>
<clipPath id="clip0_2_67">
<rect width="24" height="21.814" fill="white" transform="translate(0 0.0930023)"/>
</clipPath>
</defs>
</svg>
