<svg width="39" height="49" viewBox="0 0 39 49" fill="none" xmlns="http://www.w3.org/2000/svg">
<path fill-rule="evenodd" clip-rule="evenodd" d="M8.94053 12.7446V11.5486C8.94053 8.69367 10.0746 5.9557 12.0933 3.93699C14.1121 1.91828 16.85 0.78418 19.7049 0.78418C22.5598 0.78418 25.2978 1.91828 27.3165 3.93699C29.3352 5.9557 30.4693 8.69367 30.4693 11.5486V12.7446H36.4495C37.7699 12.7446 38.8416 13.8186 38.8416 15.1534V43.8608C38.8416 46.4921 36.7007 48.6258 34.0718 48.6258H5.33805C4.07385 48.6258 2.86135 48.124 1.96697 47.2305C1.0726 46.337 0.569505 45.125 0.568237 43.8608V15.1558C0.568237 13.821 1.63271 12.7446 2.96032 12.7446H8.94053ZM12.5287 12.7446H26.8812V11.5486C26.8812 9.6453 26.1251 7.81999 24.7793 6.47418C23.4335 5.12837 21.6082 4.3723 19.7049 4.3723C17.8016 4.3723 15.9763 5.12837 14.6305 6.47418C13.2847 7.81999 12.5287 9.6453 12.5287 11.5486V12.7446ZM8.94053 12.7446V22.3129H12.5287V12.7446H8.94053ZM26.8812 12.7446V22.3129H30.4693V12.7446H26.8812Z" fill="black"/>
</svg>
